g Arrow
v -0.046114 0.118536 -0.01891
v 0.011144 0.118536 -0.053596
v 0.009829 0.304315 -0.01891
v 0.009829 0.304315 -0.01891
v 0.011144 0.118536 -0.053596
v 0.064148 0.125295 -0.01891
v -0.046114 0.118536 -0.01891
v 0.009829 0.304315 -0.01891
v 0.011144 0.118536 0.015777
v 0.009829 0.304315 -0.01891
v 0.064148 0.125295 -0.01891
v 0.011144 0.118536 0.015777
v -0.046114 0.118536 -0.01891
v 0.011144 0.118536 0.015777
v 0.011144 0.118536 -0.053596
v 0.011144 0.118536 0.015777
v 0.064148 0.125295 -0.01891
v 0.011144 0.118536 -0.053596
v 0.01082 -1.379713 -0.007463
v 0.01082 -1.370495 0.043826
v 0.01082 -1.265929 -0.008574
v 0.01082 -1.382679 0.0265
v 0.01082 -1.401238 -0.009186
v 0.01082 -1.400052 0.051341
v 0.01082 -1.487639 0.025649
v 0.01082 -1.45993 -0.010098
v 0.01082 -1.492939 0.056368
v 0.011736 0.132746 -0.031616
v 0.019947 -1.45993 -0.028215
v 0.019947 0.132746 -0.028215
v 0.011736 -1.45993 -0.031616
v 0.003525 0.132746 -0.028215
v 0.003525 -1.45993 -0.028215
v 0.000124 0.132746 -0.020004
v 0.000124 -1.45993 -0.020004
v 0.003525 0.132746 -0.011793
v 0.003525 -1.45993 -0.011793
v 0.011736 0.132746 -0.008391
v 0.011736 -1.45993 -0.008392
v 0.019947 0.132746 -0.011793
v 0.019947 -1.45993 -0.011793
v 0.023348 0.132746 -0.020004
v 0.023348 -1.45993 -0.020004
v 0.019947 0.132746 -0.028215
v 0.019947 -1.45993 -0.028215
v 0.011736 -1.45993 -0.036248
v 0.011736 -1.442536 -0.12165
v 0.011736 -1.488387 -0.119316
v 0.011736 -1.428887 -0.096042
v 0.011736 -1.411303 -0.107927
v 0.011736 -1.420136 -0.033804
v 0.011736 -1.373057 -0.099621
v 0.011736 -1.364648 -0.058544
v 0.011736 -1.367333 -0.029548
v 0.011736 -1.347944 -0.054552
v 0.011736 -1.347145 -0.028262
v 0.011736 -1.273184 -0.024813
v 0.011736 -1.338611 -0.077003
v 0.011736 -1.291441 -0.063999
v 0.023726 -1.379713 -0.018503
v 0.075015 -1.370495 -0.018503
v 0.022615 -1.265929 -0.018503
v 0.057689 -1.382679 -0.018503
v 0.022004 -1.401238 -0.018503
v 0.08253 -1.400052 -0.018503
v 0.056838 -1.487639 -0.018503
v 0.021092 -1.45993 -0.018503
v 0.087557 -1.492939 -0.018503
v -0.004327 -1.45993 -0.020004
v -0.089729 -1.442536 -0.020004
v -0.087395 -1.488387 -0.020004
v -0.064121 -1.428887 -0.020004
v -0.076007 -1.411303 -0.020004
v -0.001883 -1.420136 -0.020004
v -0.067701 -1.373057 -0.020004
v -0.026623 -1.364648 -0.020004
v 0.002373 -1.367333 -0.020004
v -0.022631 -1.347944 -0.020004
v 0.003659 -1.347145 -0.020004
v 0.007108 -1.273184 -0.020004
v -0.045083 -1.338611 -0.020004
v -0.032079 -1.291441 -0.020004
v 0.011736 0.132746 -0.008391
v 0.011736 0.132746 -0.020004
v 0.019947 0.132746 -0.011793
v 0.003525 0.132746 -0.011793
v 0.023348 0.132746 -0.020004
v 0.000124 0.132746 -0.020004
v 0.019947 0.132746 -0.028215
v 0.003525 0.132746 -0.028215
v 0.011736 0.132746 -0.031616
v 0.019947 -1.45993 -0.011793
v 0.011736 -1.45993 -0.020004
v 0.011736 -1.45993 -0.008392
v 0.023348 -1.45993 -0.020004
v 0.003525 -1.45993 -0.011793
v 0.019947 -1.45993 -0.028215
v 0.000124 -1.45993 -0.020004
v 0.011736 -1.45993 -0.031616
v 0.003525 -1.45993 -0.028215
vt 0.876913 0.831637
vt 0.886104 0.831637
vt 0.885893 0.803554
vt 0.885893 0.803554
vt 0.886104 0.831637
vt 0.894612 0.830616
vt 0.876913 0.831637
vt 0.885893 0.803554
vt 0.886104 0.831637
vt 0.885893 0.803554
vt 0.894612 0.830616
vt 0.886104 0.831637
vt 0.874471 0.842017
vt 0.884441 0.847416
vt 0.884441 0.836618
vt 0.884441 0.847416
vt 0.893652 0.842017
vt 0.884441 0.836618
vt 0.90088 0.773236
vt 0.892082 0.771063
vt 0.901948 0.751635
vt 0.895251 0.77349
vt 0.900967 0.777435
vt 0.890404 0.776531
vt 0.894067 0.793392
vt 0.900359 0.788603
vt 0.88815 0.793952
vt 0.980066 0.725852
vt 0.982084 0.81247
vt 0.982099 0.72575
vt 0.980057 0.812368
vt 0.977756 0.726027
vt 0.977753 0.812193
vt 0.975619 0.726179
vt 0.975622 0.812041
vt 0.973522 0.726235
vt 0.973527 0.811984
vt 0.971427 0.726178
vt 0.97143 0.812042
vt 0.969296 0.726026
vt 0.969293 0.812194
vt 0.966992 0.725851
vt 0.966983 0.812369
vt 0.964964 0.725749
vt 0.96495 0.81247
vt 0.921451 0.786544
vt 0.905658 0.784152
vt 0.90651 0.792523
vt 0.910219 0.781416
vt 0.90788 0.778308
vt 0.921529 0.779238
vt 0.909046 0.77123
vt 0.916487 0.76931
vt 0.92182 0.769534
vt 0.917064 0.766216
vt 0.921869 0.765827
vt 0.921819 0.752257
vt 0.912868 0.764714
vt 0.914814 0.75596
vt 0.90088 0.773236
vt 0.892082 0.771063
vt 0.901948 0.751635
vt 0.895251 0.77349
vt 0.900967 0.777435
vt 0.890404 0.776531
vt 0.894067 0.793392
vt 0.900359 0.788603
vt 0.88815 0.793952
vt 0.921451 0.786544
vt 0.905658 0.784152
vt 0.90651 0.792523
vt 0.910219 0.781416
vt 0.90788 0.778308
vt 0.921529 0.779238
vt 0.909046 0.77123
vt 0.916487 0.76931
vt 0.92182 0.769534
vt 0.917064 0.766216
vt 0.921869 0.765827
vt 0.921819 0.752257
vt 0.912868 0.764714
vt 0.914814 0.75596
vt 0.956678 0.821274
vt 0.952706 0.817303
vt 0.952706 0.822919
vt 0.958323 0.817303
vt 0.948735 0.821274
vt 0.956678 0.813332
vt 0.94709 0.817303
vt 0.952706 0.811687
vt 0.948735 0.813332
vt 0.952331 0.822544
vt 0.952331 0.816927
vt 0.956302 0.820899
vt 0.94836 0.820899
vt 0.957947 0.816927
vt 0.946715 0.816927
vt 0.956302 0.812956
vt 0.94836 0.812956
vt 0.952331 0.811311
vn -0.51193476 0.15415893 -0.84507865
vn -0.51193476 0.15415893 -0.84507865
vn -0.51193476 0.15415893 -0.84507865
vn 0.5262191 0.15966903 -0.8352241
vn 0.5262191 0.15966903 -0.8352241
vn 0.5262191 0.15966903 -0.8352241
vn -0.5119371 0.15416 0.84507704
vn -0.5119371 0.15416 0.84507704
vn -0.5119371 0.15416 0.84507704
vn 0.526222 0.15967001 0.83522207
vn 0.526222 0.15967001 0.83522207
vn 0.526222 0.15967001 0.83522207
vn -0 -1 0
vn -0 -1 0
vn -0 -1 0
vn 0.12649503 -0.99196726 0
vn 0.12649503 -0.99196726 0
vn 0.12649503 -0.99196726 0
vn 1 0 0
vn 1 0 0
vn 1 0 0
vn 1 0 0
vn 1 0 0
vn 1 0 0
vn 1 0 0
vn 1 0 0
vn 1 0 0
vn -0 0 -1
vn 0.70711577 0 -0.70709777
vn 0.70711577 0 -0.70709777
vn -0 0 -1
vn -0.70710725 0 -0.70710623
vn -0.70710725 0 -0.70710623
vn -1 0 0
vn -1 0 0
vn -0.7071038 0 0.70710975
vn -0.7071038 0 0.70710975
vn -0 0 1
vn -0 0 1
vn 0.70711225 0 0.7071012
vn 0.70711225 0 0.7071012
vn 1 0 0
vn 1 0 0
vn 0.70711577 0 -0.70709777
vn 0.70711577 0 -0.70709777
vn 1 0 0
vn 1 0 0
vn 1 0 0
vn 1 0 0
vn 1 0 0
vn 1 0 0
vn 1 0 0
vn 1 0 0
vn 1 0 0
vn 1 0 0
vn 1 0 0
vn 1 0 0
vn 1 0 0
vn 1 0 0
vn -0 0 -1
vn -0 0 -1
vn -0 0 -1
vn -0 0 -1
vn -0 0 -1
vn -0 0 -1
vn -0 0 -1
vn -0 0 -1
vn -0 0 -1
vn -0 0 -1
vn -0 0 -1
vn -0 0 -1
vn -0 0 -1
vn -0 0 -1
vn -0 0 -1
vn -0 0 -1
vn -0 0 -1
vn -0 0 -1
vn -0 0 -1
vn -0 0 -1
vn -0 0 -1
vn -0 0 -1
vn -0 0 -1
vn -0 1 0
vn -0 1 0
vn -0 1 0
vn -0 1 0
vn -0 1 0
vn -0 1 0
vn -0 1 0
vn -0 1 0
vn -0 1 0
vn -0 -1 0
vn -0 -1 0
vn -0 -1 0
vn -0 -1 0
vn -0 -1 0
vn -0 -1 0
vn -0 -1 0
vn -0 -1 0
vn -0 -1 0
g Arrow_0
f 3/3/3 2/2/2 1/1/1
f 6/6/6 5/5/5 4/4/4
f 9/9/9 8/8/8 7/7/7
f 12/12/12 11/11/11 10/10/10
f 15/15/15 14/14/14 13/13/13
f 18/18/18 17/17/17 16/16/16
f 21/21/21 20/20/20 19/19/19
f 20/20/20 22/22/22 19/19/19
f 23/23/23 19/19/19 22/22/22
f 24/24/24 23/23/23 22/22/22
f 24/24/24 25/25/25 23/23/23
f 25/25/25 26/26/26 23/23/23
f 25/25/25 24/24/24 27/27/27
f 30/30/30 29/29/29 28/28/28
f 29/29/29 31/31/31 28/28/28
f 28/28/28 31/31/31 32/32/32
f 31/31/31 33/33/33 32/32/32
f 32/32/32 33/33/33 34/34/34
f 33/33/33 35/35/35 34/34/34
f 34/34/34 35/35/35 36/36/36
f 35/35/35 37/37/37 36/36/36
f 36/36/36 37/37/37 38/38/38
f 37/37/37 39/39/39 38/38/38
f 38/38/38 39/39/39 40/40/40
f 39/39/39 41/41/41 40/40/40
f 40/40/40 41/41/41 42/42/42
f 41/41/41 43/43/43 42/42/42
f 42/42/42 43/43/43 44/44/44
f 43/43/43 45/45/45 44/44/44
f 48/48/48 47/47/47 46/46/46
f 47/47/47 49/49/49 46/46/46
f 46/46/46 49/49/49 50/50/50
f 51/51/51 46/46/46 50/50/50
f 50/50/50 52/52/52 51/51/51
f 52/52/52 53/53/53 51/51/51
f 53/53/53 54/54/54 51/51/51
f 53/53/53 55/55/55 54/54/54
f 55/55/55 56/56/56 54/54/54
f 55/55/55 57/57/57 56/56/56
f 57/57/57 55/55/55 58/58/58
f 59/59/59 57/57/57 58/58/58
f 62/62/62 61/61/61 60/60/60
f 61/61/61 63/63/63 60/60/60
f 64/64/64 60/60/60 63/63/63
f 65/65/65 64/64/64 63/63/63
f 65/65/65 66/66/66 64/64/64
f 66/66/66 67/67/67 64/64/64
f 66/66/66 65/65/65 68/68/68
f 71/71/71 70/70/70 69/69/69
f 70/70/70 72/72/72 69/69/69
f 69/69/69 72/72/72 73/73/73
f 74/74/74 69/69/69 73/73/73
f 73/73/73 75/75/75 74/74/74
f 75/75/75 76/76/76 74/74/74
f 76/76/76 77/77/77 74/74/74
f 76/76/76 78/78/78 77/77/77
f 78/78/78 79/79/79 77/77/77
f 78/78/78 80/80/80 79/79/79
f 80/80/80 78/78/78 81/81/81
f 82/82/82 80/80/80 81/81/81
f 85/85/85 84/84/84 83/83/83
f 83/83/83 84/84/84 86/86/86
f 87/87/87 84/84/84 85/85/85
f 86/86/86 84/84/84 88/88/88
f 89/89/89 84/84/84 87/87/87
f 88/88/88 84/84/84 90/90/90
f 91/91/91 84/84/84 89/89/89
f 90/90/90 84/84/84 91/91/91
f 94/94/94 93/93/93 92/92/92
f 92/92/92 93/93/93 95/95/95
f 96/96/96 93/93/93 94/94/94
f 95/95/95 93/93/93 97/97/97
f 98/98/98 93/93/93 96/96/96
f 97/97/97 93/93/93 99/99/99
f 100/100/100 93/93/93 98/98/98
f 99/99/99 93/93/93 100/100/100
